<svg width="20" height="20" viewBox="0 0 20 20" fill="none" xmlns="http://www.w3.org/2000/svg">
<path fill-rule="evenodd" clip-rule="evenodd" d="M10 0.833344C4.83614 0.833344 0.833328 4.61588 0.833328 9.72503C0.833328 12.3974 1.92856 14.7067 3.71218 16.3018C3.86191 16.4358 3.95229 16.6235 3.95843 16.8244L4.00836 18.455C4.02431 18.9751 4.56155 19.3136 5.03748 19.1035L6.85694 18.3003C7.01118 18.2323 7.18401 18.2196 7.34653 18.2643C8.18263 18.4942 9.07249 18.6167 10 18.6167C15.1639 18.6167 19.1667 14.8342 19.1667 9.72503C19.1667 4.61588 15.1639 0.833344 10 0.833344Z" fill="url(#paint0_radial_95_152)"/>
<path fill-rule="evenodd" clip-rule="evenodd" d="M4.49557 12.3249L7.18829 8.0529C7.61661 7.37328 8.53383 7.20407 9.1765 7.68605L11.3182 9.29229C11.5146 9.43969 11.785 9.43891 11.9807 9.2904L14.8731 7.09526C15.2591 6.80229 15.7631 7.26429 15.5047 7.67428L12.812 11.9464C12.3837 12.6259 11.4664 12.7952 10.8238 12.3132L8.68209 10.7069C8.48561 10.5595 8.21523 10.5603 8.01958 10.7088L5.12716 12.904C4.74111 13.1969 4.23716 12.7349 4.49557 12.3249Z" fill="white"/>
<defs>
<radialGradient id="paint0_radial_95_152" cx="0" cy="0" r="1" gradientUnits="userSpaceOnUse" gradientTransform="translate(4.36203 19.0686) scale(19.976 19.9759)">
<stop stop-color="#0099FF"/>
<stop offset="0.609754" stop-color="#A033FF"/>
<stop offset="0.934823" stop-color="#FF5280"/>
<stop offset="1" stop-color="#FF7061"/>
</radialGradient>
</defs>
</svg>
