<svg width="20" height="20" viewBox="0 0 20 20" fill="none" xmlns="http://www.w3.org/2000/svg">
<path d="M8.4375 11.5625L12.5 7.5" stroke="white" stroke-width="2" stroke-linecap="round" stroke-linejoin="round"/>
<path d="M17.4757 3.29526C17.5059 3.18834 17.5069 3.07533 17.4789 2.96786C17.4508 2.86039 17.3946 2.76233 17.3161 2.68379C17.2376 2.60525 17.1395 2.54906 17.032 2.521C16.9246 2.49294 16.8115 2.49403 16.7046 2.52416L1.70463 7.0726C1.58217 7.10716 1.47317 7.17828 1.39221 7.27645C1.31125 7.37461 1.26219 7.49516 1.25157 7.62196C1.24095 7.74876 1.26929 7.87578 1.3328 7.98605C1.39631 8.09631 1.49197 8.18456 1.60698 8.23901L8.43745 11.5624L11.7609 18.3921C11.8153 18.5071 11.9036 18.6028 12.0138 18.6663C12.1241 18.7298 12.2511 18.7582 12.3779 18.7475C12.5047 18.7369 12.6253 18.6879 12.7234 18.6069C12.8216 18.5259 12.8927 18.4169 12.9273 18.2945L17.4757 3.29526Z" stroke="white" stroke-width="2" stroke-linecap="round" stroke-linejoin="round"/>
</svg>
