<svg width="14" height="14" viewBox="0 0 14 14" fill="none" xmlns="http://www.w3.org/2000/svg">
<path d="M7.875 2.14497L7.42516 2.54201C7.4334 2.55135 7.44193 2.56042 7.45074 2.56923L7.875 2.14497ZM11.855 7.875L11.458 7.42516C11.4487 7.4334 11.4396 7.44193 11.4308 7.45074L11.855 7.875ZM11.9583 6.2283L12.4082 5.83126C12.3999 5.82192 12.3914 5.81284 12.3826 5.80404L11.9583 6.2283ZM6.2283 11.9583L5.80404 12.3826C5.81284 12.3914 5.82192 12.3999 5.83126 12.4082L6.2283 11.9583ZM7.7717 11.9583L8.16874 12.4082C8.17808 12.3999 8.18716 12.3914 8.19596 12.3826L7.7717 11.9583ZM2.14497 7.875L2.56923 7.45074L2.55602 7.43752L2.54201 7.42516L2.14497 7.875ZM4.08333 3.48333C3.75196 3.48333 3.48333 3.75196 3.48333 4.08333C3.48333 4.4147 3.75196 4.68333 4.08333 4.68333V3.48333ZM4.08917 4.68333C4.42054 4.68333 4.68917 4.4147 4.68917 4.08333C4.68917 3.75196 4.42054 3.48333 4.08917 3.48333V4.68333ZM1.75 4.08333H2.35C2.35 3.12604 3.12604 2.35 4.08333 2.35V1.75V1.15C2.4633 1.15 1.15 2.4633 1.15 4.08333H1.75ZM1.75 7H2.35V4.08333H1.75H1.15V7H1.75ZM4.08333 1.75V2.35H7V1.75V1.15H4.08333V1.75ZM7 1.75V2.35C7.16916 2.35 7.32044 2.42337 7.42516 2.54201L7.875 2.14497L8.32484 1.74793C8.002 1.38215 7.52774 1.15 7 1.15V1.75ZM12.25 7H11.65C11.65 7.16916 11.5766 7.32044 11.458 7.42516L11.855 7.875L12.2521 8.32484C12.6178 8.002 12.85 7.52774 12.85 7H12.25ZM11.9583 6.2283L11.5085 6.62534C11.597 6.7256 11.65 6.85588 11.65 7H12.25H12.85C12.85 6.55236 12.6827 6.14233 12.4082 5.83126L11.9583 6.2283ZM7 12.25V11.65C6.85588 11.65 6.7256 11.597 6.62534 11.5085L6.2283 11.9583L5.83126 12.4082C6.14233 12.6827 6.55236 12.85 7 12.85V12.25ZM7.7717 11.9583L7.37466 11.5085C7.2744 11.597 7.14412 11.65 7 11.65V12.25V12.85C7.44764 12.85 7.85767 12.6827 8.16874 12.4082L7.7717 11.9583ZM2.14497 7.875L2.54201 7.42516C2.42337 7.32044 2.35 7.16916 2.35 7H1.75H1.15C1.15 7.52774 1.38215 8.002 1.74793 8.32484L2.14497 7.875ZM7.875 2.14497L7.45074 2.56923L11.5341 6.65257L11.9583 6.2283L12.3826 5.80404L8.29926 1.7207L7.875 2.14497ZM6.2283 11.9583L6.65257 11.5341L2.56923 7.45074L2.14497 7.875L1.7207 8.29926L5.80404 12.3826L6.2283 11.9583ZM11.855 7.875L11.4308 7.45074L7.34743 11.5341L7.7717 11.9583L8.19596 12.3826L12.2793 8.29926L11.855 7.875ZM4.08333 4.08333V4.68333H4.08917V4.08333V3.48333H4.08333V4.08333Z" fill="#425066"/>
</svg>
